<?xml version="1.0" standalone="no"?><!DOCTYPE svg PUBLIC "-//W3C//DTD SVG 1.1//EN" "http://www.w3.org/Graphics/SVG/1.1/DTD/svg11.dtd"><svg class="icon" width="200px" height="200.00px" viewBox="0 0 1024 1024" version="1.1" xmlns="http://www.w3.org/2000/svg"><path fill="#00adb5" d="M91 177.2m-91 0a91 91 0 1 0 182 0 91 91 0 1 0-182 0Z"  /><path fill="#00adb5" d="M933 177.2m-91 0a91 91 0 1 0 182 0 91 91 0 1 0-182 0Z"  /><path fill="#00adb5" d="M929.6 382c-37.7 0-68.3 30.6-68.3 68.3-0.2 193.7-157.3 350.7-351 351-193.8-0.2-350.8-157.2-351-351 0-37.7-30.6-68.3-68.3-68.3s-68.3 30.6-68.3 68.3c0.3 269.1 218.4 487.2 487.5 487.5 269.1-0.3 487.2-218.4 487.5-487.5 0.1-37.7-30.4-68.3-68.1-68.3z"  /></svg>